# xmcd CD database file
#
# Track frame offsets:
#	183
#	10003
#	27755
#	38973
#	51703
#	71303
#	88768
#	111705
#	129663
#	161590
#	176478
#	192805
#	205330
#	217315
#	229798
#	243770
#	257168
#	271278
#	287758
#
# Disc length: 4049 seconds
#
# Revision: 0
# Processed by: cddbd v1.5.1PL0 Copyright (c) Steve Scherf et al.
# Submitted via: CDex 1.51
#
DISCID=1d0fcf13
DTITLE=Ray Noble and his All Star American Orchestra  - 1935-36
DYEAR=1992
DGENRE=Jazz
TTITLE0=I'll never say never again
TTITLE1=Rhythm is our business
TTITLE2=California here I come
TTITLE3=Let's spill the beans
TTITLE4=In a little gypsy tea room
TTITLE5=El Relicario
TTITLE6=Lullaby of Broadway
TTITLE7=Sweet Sue just you
TTITLE8=Medley
TTITLE9=Sleep
TTITLE10='Way back home
TTITLE11=Snowball
TTITLE12=Now
TTITLE13=Little old lady
TTITLE14=Let's call a heart a heart
TTITLE15=There's something in the air
TTITLE16=Easy to love
TTITLE17=I'll forsake all others
TTITLE18=Footprints in the snow
EXTD=YEAR: 1992
EXTT0=
EXTT1=
EXTT2=
EXTT3=
EXTT4=
EXTT5=
EXTT6=
EXTT7=
EXTT8=
EXTT9=
EXTT10=
EXTT11=
EXTT12=
EXTT13=
EXTT14=
EXTT15=
EXTT16=
EXTT17=
EXTT18=
PLAYORDER=
